<svg xmlns="http://www.w3.org/2000/svg" viewBox="0 0 512 512">
  <rect width="512" height="512" fill="#050505" rx="120"/>
  <circle cx="256" cy="256" r="190" fill="none" stroke="#CCFF00" stroke-width="1.5" opacity="0.04"/>
  <circle cx="256" cy="256" r="150" fill="none" stroke="#CCFF00" stroke-width="2" opacity="0.07"/>
  <circle cx="256" cy="256" r="140" fill="none" stroke="#E6E6E6" stroke-width="3" opacity="0.35"/>
  <line x1="256" y1="80" x2="256" y2="432" stroke="#CCFF00" stroke-width="5" stroke-linecap="round"/>
  <line x1="80" y1="256" x2="432" y2="256" stroke="#E6E6E6" stroke-width="1.5" opacity="0.12" stroke-linecap="round"/>
  <path d="M238 96 L256 74 L274 96 Z" fill="#CCFF00"/>
  <line x1="238" y1="96" x2="274" y2="96" stroke="#CCFF00" stroke-width="4" stroke-linecap="round"/>
  <path d="M238 416 L256 438 L274 416 Z" fill="#CCFF00"/>
  <line x1="238" y1="416" x2="274" y2="416" stroke="#CCFF00" stroke-width="4" stroke-linecap="round"/>
  <circle cx="256" cy="256" r="14" fill="#CCFF00"/>
  <circle cx="256" cy="256" r="6" fill="#050505"/>
  <path d="M80 160V80h76" stroke="#E6E6E6" stroke-width="12" fill="none" stroke-linecap="round" stroke-linejoin="round"/>
  <path d="M432 160V80h-76" stroke="#E6E6E6" stroke-width="12" fill="none" stroke-linecap="round" stroke-linejoin="round"/>
  <path d="M80 352v80h76" stroke="#E6E6E6" stroke-width="12" fill="none" stroke-linecap="round" stroke-linejoin="round"/>
  <path d="M432 352v80h-76" stroke="#CCFF00" stroke-width="12" fill="none" stroke-linecap="round" stroke-linejoin="round"/>
</svg>
